<svg xmlns="http://www.w3.org/2000/svg" viewBox="0 0 30 30">
  <path
    d="M15,1.17A13.83,13.83,0,1,0,28.91,15,13.88,13.88,0,0,0,15,1.17Zm0,26.6A12.77,12.77,0,1,1,27.84,15,12.82,12.82,0,0,1,15,27.77Z"
    stroke="#fff" stroke-miterlimit="10" stroke-width="1"/>
  <path d="M15,6.23a.55.55,0,0,0-.55.55V18.84a.55.55,0,0,0,1.1,0V6.78A.55.55,0,0,0,15,6.23Z" stroke="#fff"
        stroke-miterlimit="10"/>
  <path d="M15,21a.55.55,0,0,0-.55.55v1.09a.55.55,0,0,0,1.1,0V21.58A.55.55,0,0,0,15,21Z" stroke="#fff"
        stroke-miterlimit="10"/>
</svg>
