<svg xmlns="http://www.w3.org/2000/svg" xmlns:xlink="http://www.w3.org/1999/xlink" viewBox="0 0 176 176"><defs><clipPath id="a"><circle cx="88" cy="88" r="88" fill="none"/></clipPath><linearGradient id="b" x1="28.34" y1="103.98" x2="80.84" y2="134.65" gradientTransform="matrix(1, 0, 0, -1, -7, 171)" gradientUnits="userSpaceOnUse"><stop offset="0" stop-color="#a52714" stop-opacity="0.6"/><stop offset="0.66" stop-color="#a52714" stop-opacity="0"/></linearGradient><linearGradient id="c" x1="109.88" y1="14.47" x2="51.52" y2="48.67" gradientTransform="matrix(1, 0, 0, -1, -7, 171)" gradientUnits="userSpaceOnUse"><stop offset="0" stop-color="#055524" stop-opacity="0.4"/><stop offset="0.33" stop-color="#055524" stop-opacity="0"/></linearGradient><clipPath id="d"><polygon points="0 176 83.77 176 122.65 137.12 122.65 108 53.35 108 0 16.48 0 176" fill="none"/></clipPath><linearGradient id="e" x1="120.84" y1="129.19" x2="135.54" y2="64.89" gradientTransform="matrix(1, 0, 0, -1, -7, 171)" gradientUnits="userSpaceOnUse"><stop offset="0" stop-color="#ea6100" stop-opacity="0.3"/><stop offset="0.66" stop-color="#ea6100" stop-opacity="0"/></linearGradient><clipPath id="g"><polygon points="88 48 122.65 108 83.77 176 176 176 176 48 88 48" fill="none"/></clipPath><radialGradient id="j" cx="667.2" cy="123.05" r="84.08" gradientTransform="matrix(1, 0, 0, -1, -583, 171)" gradientUnits="userSpaceOnUse"><stop offset="0" stop-color="#3e2723" stop-opacity="0.2"/><stop offset="1" stop-color="#3e2723" stop-opacity="0"/></radialGradient><clipPath id="l"><polygon points="13.97 0 13.97 40.34 53.36 108 88 48 176 48 176 0 13.97 0" fill="none"/></clipPath><radialGradient id="o" cx="596.9" cy="130.48" r="78.04" xlink:href="#j"/><radialGradient id="q" cx="670.8" cy="82.86" r="87.87" gradientTransform="matrix(1, 0, 0, -1, -583, 171)" gradientUnits="userSpaceOnUse"><stop offset="0" stop-color="#263238" stop-opacity="0.2"/><stop offset="1" stop-color="#263238" stop-opacity="0"/></radialGradient></defs><g clip-path="url(#a)"><path d="M14,0V108h39.4L88,48h88V0Z" fill="#db4437"/><path d="M14,0V108h39.4L88,48h88V0Z" fill="url(#b)"/><path d="M54.3,107.6,14.48,39.3l-.58,1,39.54,67.8Z" fill="#3e2723" fill-opacity="0.15"/><path d="M0,176H83.77l38.88-38.88V108H53.35L0,16.48Z" fill="#0f9d58"/><path d="M0,176H83.77l38.88-38.88V108H53.35L0,16.48Z" fill="url(#c)"/><path d="M121.8,109.3l-.83-.48L82.57,176h1.15l38.1-66.64Z" fill="#263238" fill-opacity="0.15"/><g clip-path="url(#d)"><path d="M88,48l34.65,60L83.77,176H176V48Z" fill="#ffcd40"/><path d="M88,48l34.65,60L83.77,176H176V48Z" fill="url(#e)"/></g><path d="M88,48l34.65,60L83.77,176H176V48Z" fill="#ffcd40"/><path d="M88,48l34.65,60L83.77,176H176V48Z" fill="url(#e)"/><g clip-path="url(#g)"><path d="M14,0V108h39.4L88,48h88V0Z" fill="#db4437"/><path d="M14,0V108h39.4L88,48h88V0Z" fill="url(#b)"/></g></g><g clip-path="url(#a)"><path d="M88,48V69l78.4-21Z" fill="url(#j)"/></g><g clip-path="url(#a)"><g clip-path="url(#l)"><path d="M0,176H83.77l38.88-38.88V108H53.35L0,16.48Z" fill="#0f9d58"/><path d="M0,176H83.77l38.88-38.88V108H53.35L0,16.48Z" fill="url(#c)"/></g></g><g clip-path="url(#a)"><path d="M14,40.45,71.22,97.69,53.36,108Z" fill="url(#o)"/></g><g clip-path="url(#a)"><path d="M83.83,175.9l21-78.2L122.65,108Z" fill="url(#q)"/></g><g clip-path="url(#a)"><circle cx="88" cy="88" r="40" fill="#f1f1f1"/><circle cx="88" cy="88" r="32" fill="#4285f4"/><path d="M88,47A40,40,0,0,0,48,87v1A40,40,0,0,1,88,48h88V47Z" fill="#3e2723" fill-opacity="0.2"/><path d="M122.6,108a39.93,39.93,0,0,1-69.2,0h0L0,16.48v1L53.4,109a39.93,39.93,0,0,0,69.2,0h.05v-1h-.05Z" fill="#fff" fill-opacity="0.1"/><path d="M89,48c-.17,0-.33,0-.5,0a40,40,0,0,1,0,79.94c.17,0,.33,0,.5,0a40,40,0,0,0,0-80Z" fill="#3e2723" opacity="0.1" style="isolation:isolate"/><path d="M123,109.3a39.87,39.87,0,0,0,3.5-32,39.56,39.56,0,0,1-3.87,30.69l0,0L83.77,176h1.16Z" fill="#fff" fill-opacity="0.2"/><path d="M88,1a88,88,0,0,1,88,87.5c0-.17,0-.33,0-.5A88,88,0,0,0,0,88c0,.17,0,.33,0,.5A88,88,0,0,1,88,1Z" fill="#fff" fill-opacity="0.2"/><path d="M88,175a88,88,0,0,0,88-87.5c0,.17,0,.33,0,.5A88,88,0,0,1,0,88c0-.17,0-.33,0-.5A88,88,0,0,0,88,175Z" fill="#3e2723" fill-opacity="0.15"/></g></svg>