<svg version="1.1" id="Layer_1" xmlns="http://www.w3.org/2000/svg" xmlns:xlink="http://www.w3.org/1999/xlink" x="0" y="0" viewBox="0 0 80 80" style="enable-background:new 0 0 80 80" xml:space="preserve"><style>.st1{fill:#db4437}.st3{fill:#3e2723;fill-opacity:.15}.st4{fill:#0f9d58}.st8{fill:#ffcd40}.st28{fill:#fff;fill-opacity:.2}</style><defs><circle id="SVGID_1_" cx="40" cy="40" r="40"/></defs><clipPath id="SVGID_2_"><use xlink:href="#SVGID_1_" style="overflow:visible"/></clipPath><g style="clip-path:url(#SVGID_2_)"><path class="st1" d="M6.8-.2v49.4h18.1l15.9-27.5h39.4V-.2H6.8z"/><linearGradient id="SVGID_3_" gradientUnits="userSpaceOnUse" x1="16.959" y1="651.302" x2="40.788" y2="637.382" gradientTransform="translate(-7 -621)"><stop offset="0" style="stop-color:#a52714;stop-opacity:.6"/><stop offset=".66" style="stop-color:#a52714;stop-opacity:0"/></linearGradient><path d="M6.8-.2v49.4h18.1l15.9-27.5h39.4V-.2H6.8z" style="fill:url(#SVGID_3_)"/><path class="st3" d="m24.7 48.9-18.1-31-.3.5 18 30.8.4-.3z"/><path class="st4" d="M-.3 80.2h38l17.7-17.7V49.2H24L-.3 7.4v72.8z"/><linearGradient id="SVGID_4_" gradientUnits="userSpaceOnUse" x1="53.487" y1="692.2" x2="26.939" y2="676.642" gradientTransform="translate(-7 -621)"><stop offset="0" style="stop-color:#055524;stop-opacity:.4"/><stop offset=".33" style="stop-color:#055524;stop-opacity:0"/></linearGradient><path d="M-.3 80.2h38l17.7-17.7V49.2H24L-.3 7.4v72.8z" style="fill:url(#SVGID_4_)"/><path d="m55.4 49.9-.4-.2-17.5 30.5h.5l17.4-30.3z" style="fill:#263238;fill-opacity:.15"/><defs><path id="SVGID_5_" d="M-.3 80.2h38.1l17.6-17.7V49.2H24L-.3 7.4z"/></defs><clipPath id="SVGID_6_"><use xlink:href="#SVGID_5_" style="overflow:visible"/></clipPath><g style="clip-path:url(#SVGID_6_)"><path class="st8" d="m39.9 21.7 15.8 27.4-17.8 31.1h42.2V21.7H39.9z"/><linearGradient id="SVGID_7_" gradientUnits="userSpaceOnUse" x1="58.691" y1="639.838" x2="65.412" y2="669.236" gradientTransform="translate(-7 -621)"><stop offset="0" style="stop-color:#ea6100;stop-opacity:.3"/><stop offset=".66" style="stop-color:#ea6100;stop-opacity:0"/></linearGradient><path d="m39.9 21.7 15.8 27.4-17.8 31.1h42.2V21.7H39.9z" style="fill:url(#SVGID_7_)"/></g><path class="st8" d="m39.9 21.7 15.8 27.4-17.8 31.1h42.2V21.7H39.9z"/><linearGradient id="SVGID_8_" gradientUnits="userSpaceOnUse" x1="58.691" y1="639.838" x2="65.412" y2="669.236" gradientTransform="translate(-7 -621)"><stop offset="0" style="stop-color:#ea6100;stop-opacity:.3"/><stop offset=".66" style="stop-color:#ea6100;stop-opacity:0"/></linearGradient><path d="m39.9 21.7 15.8 27.4-17.8 31.1h42.2V21.7H39.9z" style="fill:url(#SVGID_8_)"/><g><defs><path id="SVGID_9_" d="m39.9 21.7 15.8 27.4-17.8 31.1h42.2V21.7z"/></defs><clipPath id="SVGID_10_"><use xlink:href="#SVGID_9_" style="overflow:visible"/></clipPath><g style="clip-path:url(#SVGID_10_)"><path class="st1" d="M6.8-.2v49.4h18.1l15.9-27.5h39.4V-.2H6.8z"/><linearGradient id="SVGID_11_" gradientUnits="userSpaceOnUse" x1="16.959" y1="651.302" x2="40.788" y2="637.382" gradientTransform="translate(-7 -621)"><stop offset="0" style="stop-color:#a52714;stop-opacity:.6"/><stop offset=".66" style="stop-color:#a52714;stop-opacity:0"/></linearGradient><path d="M6.8-.2v49.4h18.1l15.9-27.5h39.4V-.2H6.8z" style="fill:url(#SVGID_11_)"/></g></g></g><defs><circle id="SVGID_12_" cx="40" cy="40" r="40"/></defs><clipPath id="SVGID_13_"><use xlink:href="#SVGID_12_" style="overflow:visible"/></clipPath><g style="clip-path:url(#SVGID_13_)"><radialGradient id="SVGID_14_" cx="620.439" cy="634.968" r="54.204" gradientTransform="translate(-399.268 -426.061) scale(.7051)" gradientUnits="userSpaceOnUse"><stop offset="0" style="stop-color:#3e2723;stop-opacity:.2"/><stop offset="1" style="stop-color:#3e2723;stop-opacity:0"/></radialGradient><path d="M39.9 21.7v9.5l35.6-9.5H39.9z" style="fill:url(#SVGID_14_)"/></g><g><defs><circle id="SVGID_15_" cx="40" cy="40" r="40"/></defs><clipPath id="SVGID_16_"><use xlink:href="#SVGID_15_" style="overflow:visible"/></clipPath><g style="clip-path:url(#SVGID_16_)"><defs><path id="SVGID_17_" d="M6.8-.2v18.4L24.6 49l15.7-27.3h39.8V-.2z"/></defs><clipPath id="SVGID_18_"><use xlink:href="#SVGID_17_" style="overflow:visible"/></clipPath><g style="clip-path:url(#SVGID_18_)"><path class="st4" d="M-.3 80.2h38l17.7-17.7V49.2H24L-.3 7.4v72.8z"/><linearGradient id="SVGID_19_" gradientUnits="userSpaceOnUse" x1="53.487" y1="692.2" x2="26.939" y2="676.642" gradientTransform="translate(-7 -621)"><stop offset="0" style="stop-color:#055524;stop-opacity:.4"/><stop offset=".33" style="stop-color:#055524;stop-opacity:0"/></linearGradient><path d="M-.3 80.2h38l17.7-17.7V49.2H24L-.3 7.4v72.8z" style="fill:url(#SVGID_19_)"/></g></g></g><g><defs><circle id="SVGID_20_" cx="40" cy="40" r="40"/></defs><clipPath id="SVGID_21_"><use xlink:href="#SVGID_20_" style="overflow:visible"/></clipPath><g style="clip-path:url(#SVGID_21_)"><radialGradient id="SVGID_22_" cx="368.071" cy="54.614" r="50.31" gradientTransform="matrix(.7051 0 0 -.7051 11.797 97.817)" gradientUnits="userSpaceOnUse"><stop offset="0" style="stop-color:#3e2723;stop-opacity:.2"/><stop offset="1" style="stop-color:#3e2723;stop-opacity:0"/></radialGradient><path d="m6.4 18.4 26 26-8.1 4.7L6.4 18.4z" style="fill:url(#SVGID_22_)"/></g></g><g><defs><circle id="SVGID_23_" cx="40" cy="40" r="40"/></defs><clipPath id="SVGID_24_"><use xlink:href="#SVGID_23_" style="overflow:visible"/></clipPath><g style="clip-path:url(#SVGID_24_)"><radialGradient id="SVGID_25_" cx="622.871" cy="661.09" r="56.647" gradientTransform="translate(-399.268 -426.061) scale(.7051)" gradientUnits="userSpaceOnUse"><stop offset="0" style="stop-color:#263238;stop-opacity:.2"/><stop offset="1" style="stop-color:#263238;stop-opacity:0"/></radialGradient><path d="m38.1 80 9.5-35.5 8.1 4.7L38.1 80z" style="fill:url(#SVGID_25_)"/></g></g><g><defs><circle id="SVGID_26_" cx="40" cy="40" r="40"/></defs><clipPath id="SVGID_27_"><use xlink:href="#SVGID_26_" style="overflow:visible"/></clipPath><g style="clip-path:url(#SVGID_27_)"><circle cx="40" cy="40" r="18.2" style="fill:#f1f1f1"/><circle cx="40" cy="40" r="14.5" style="fill:#4285f4"/><path d="M40 21.7c-10-.3-18.2 7.8-18.4 17.9v.4C21.8 30 30 21.8 40 21h40.1v.7H40z" style="fill:#3e2723;fill-opacity:.2"/><path d="M55.7 49.2c-5 8.6-16.1 11.6-24.8 6.6-2.8-1.6-5.1-3.9-6.7-6.7L-.3 7.5V8l24.5 41.6c5 8.7 16.1 11.7 24.8 6.7 2.8-1.6 5.1-3.9 6.7-6.3h-.3v-.7h.3z" style="fill:#fff;fill-opacity:.1"/><path d="M40.6 21.7h-.2c10.1.4 18 8.9 17.6 19-.4 9.6-8 17.3-17.6 17.6h.2c8.2 0 15.6-5.4 17.7-13.4 3.2-12.2-5.9-23.3-17.7-23.2z" style="opacity:.1;fill:#3e2723;enable-background:new"/><path class="st28" d="M55.9 49.9c2.6-4.4 3.1-9.7 1.6-14.5 1.3 4.7.7 9.7-1.8 14L38.1 80.2h.5l17.3-30.3z"/><path class="st28" d="M40.3.5C62.2.5 80 18.2 80.1 40.1v-.2C80.1 17.9 62.3.1 40.3.1S.4 17.9.4 39.9v.2C.6 18.2 18.4.5 40.3.5z"/><path class="st3" d="M40.3 79.5c21.9 0 39.7-17.7 39.8-39.6v.2c0 22-17.8 39.8-39.8 39.8S.4 62.1.4 40.1v-.2c.2 21.9 18 39.6 39.9 39.6z"/></g></g></svg>