<svg xmlns="http://www.w3.org/2000/svg" viewBox="0 0 80 80" style="enable-background:new 0 0 80 80" xml:space="preserve"><linearGradient id="a" gradientUnits="userSpaceOnUse" x1="308.816" y1="432.05" x2="336.673" y2="432.05" gradientTransform="matrix(2 0 0 2 -599.284 -808.79)"><stop offset="0" style="stop-color:#0c59a4"/><stop offset="1" style="stop-color:#114a8b"/></linearGradient><path d="M72.2 59.5c-1.1.6-2.2 1-3.3 1.5-3.6 1.3-7.4 2-11.2 2C42.9 63 30 52.9 30 39.8c0-3.6 2-6.8 5.1-8.5-13.4.6-16.8 14.5-16.8 22.7 0 23.1 21.3 25.4 25.9 25.4 2.5 0 6.2-.7 8.4-1.4l.4-.1c8.6-3 15.9-8.8 20.8-16.5.4-.6.2-1.4-.4-1.7-.3-.4-.8-.4-1.2-.2z" style="fill:url(#a)"/><radialGradient id="b" cx="348.854" cy="489.513" r="95.38" gradientTransform="matrix(.3125 0 0 .2968 -59.882 -89.539)" gradientUnits="userSpaceOnUse"><stop offset=".72" style="stop-color:#000;stop-opacity:0"/><stop offset=".95" style="stop-color:#000;stop-opacity:.53"/><stop offset="1" style="stop-color:#000"/></radialGradient><path d="M72.2 59.5c-1.1.6-2.2 1-3.3 1.5-3.6 1.3-7.4 2-11.2 2C42.9 63 30 52.9 30 39.8c0-3.6 2-6.8 5.1-8.5-13.4.6-16.8 14.5-16.8 22.7 0 23.1 21.3 25.4 25.9 25.4 2.5 0 6.2-.7 8.4-1.4l.4-.1c8.6-3 15.9-8.8 20.8-16.5.4-.6.2-1.4-.4-1.7-.3-.4-.8-.4-1.2-.2z" style="opacity:.35;fill:url(#b);enable-background:new"/><linearGradient id="c" gradientUnits="userSpaceOnUse" x1="323.514" y1="419.976" x2="306.112" y2="438.931" gradientTransform="matrix(2 0 0 2 -599.284 -808.79)"><stop offset="0" style="stop-color:#1b9de2"/><stop offset=".16" style="stop-color:#1595df"/><stop offset=".67" style="stop-color:#0680d7"/><stop offset="1" style="stop-color:#0078d4"/></linearGradient><path d="M33 75.4c-2.8-1.7-5.2-4-7.1-6.7-8.2-11.3-5.7-27 5.5-35.2 1.2-.9 2.4-1.6 3.7-2.3 1-.5 2.6-1.3 4.9-1.2 3.2 0 6.1 1.5 8 4.1 1.3 1.7 2 3.7 2 5.8 0-.1 7.7-24.9-25-24.9C11.3 15 0 28 0 39.4c-.1 6 1.2 12 3.8 17.5 8.6 18.4 29.6 27.4 48.9 21-6.6 2.1-13.8 1.2-19.7-2.5z" style="fill:url(#c)"/><radialGradient id="d" cx="171.759" cy="-13.171" r="143.24" gradientTransform="matrix(.04687 -.3093 .25 .0375 17.301 115.799)" gradientUnits="userSpaceOnUse"><stop offset=".76" style="stop-color:#000;stop-opacity:0"/><stop offset=".95" style="stop-color:#000;stop-opacity:.5"/><stop offset="1" style="stop-color:#000"/></radialGradient><path d="M33 75.4c-2.8-1.7-5.2-4-7.1-6.7-8.2-11.3-5.7-27 5.5-35.2 1.2-.9 2.4-1.6 3.7-2.3 1-.5 2.6-1.3 4.9-1.2 3.2 0 6.1 1.5 8 4.1 1.3 1.7 2 3.7 2 5.8 0-.1 7.7-24.9-25-24.9C11.3 15 0 28 0 39.4c-.1 6 1.2 12 3.8 17.5 8.6 18.4 29.6 27.4 48.9 21-6.6 2.1-13.8 1.2-19.7-2.5z" style="opacity:.41;fill:url(#d);enable-background:new"/><radialGradient id="e" cx="736.98" cy="157.31" r="202.43" gradientTransform="matrix(-.0125 .3124 -.6656 -.025 121.996 -211.526)" gradientUnits="userSpaceOnUse"><stop offset="0" style="stop-color:#35c1f1"/><stop offset=".11" style="stop-color:#34c1ed"/><stop offset=".23" style="stop-color:#2fc2df"/><stop offset=".31" style="stop-color:#2bc3d2"/><stop offset=".67" style="stop-color:#36c752"/></radialGradient><path d="M47.6 46.5c-.3.3-1 .8-1 1.8 0 .8.5 1.6 1.5 2.3 4.5 3.1 13 2.7 13 2.7 3.3 0 6.6-.9 9.5-2.6 5.9-3.4 9.5-9.7 9.5-16.5.1-7-2.5-11.7-3.5-13.7C69.8 7.4 55.5 0 40 0 18.1 0 .3 17.6 0 39.4.1 28 11.5 18.8 25 18.8c1.1 0 7.3.1 13.1 3.1 5.1 2.7 7.8 5.9 9.6 9.1 1.9 3.3 2.3 7.5 2.3 9.2 0 1.8-.8 4.3-2.4 6.3z" style="fill:url(#e)"/><radialGradient id="f" cx="870.307" cy="453.099" r="97.34" gradientTransform="matrix(.0875 .2999 -.2437 .07186 109.307 -269.416)" gradientUnits="userSpaceOnUse"><stop offset="0" style="stop-color:#66eb6e"/><stop offset="1" style="stop-color:#66eb6e;stop-opacity:0"/></radialGradient><path d="M47.6 46.5c-.3.3-1 .8-1 1.8 0 .8.5 1.6 1.5 2.3 4.5 3.1 13 2.7 13 2.7 3.3 0 6.6-.9 9.5-2.6 5.9-3.4 9.5-9.7 9.5-16.5.1-7-2.5-11.7-3.5-13.7C69.8 7.4 55.5 0 40 0 18.1 0 .3 17.6 0 39.4.1 28 11.5 18.8 25 18.8c1.1 0 7.3.1 13.1 3.1 5.1 2.7 7.8 5.9 9.6 9.1 1.9 3.3 2.3 7.5 2.3 9.2 0 1.8-.8 4.3-2.4 6.3z" style="fill:url(#f)"/></svg>