<svg xmlns="http://www.w3.org/2000/svg" viewBox="0 0 80 80" style="enable-background:new 0 0 80 80" xml:space="preserve"><linearGradient id="a" gradientUnits="userSpaceOnUse" x1="72.657" y1="63.385" x2="7.104" y2=".137" gradientTransform="matrix(1 0 0 -1 -1.3 75.206)"><stop offset=".048" style="stop-color:#fff44f"/><stop offset=".111" style="stop-color:#ffe847"/><stop offset=".225" style="stop-color:#ffc830"/><stop offset=".368" style="stop-color:#ff980e"/><stop offset=".401" style="stop-color:#ff8b16"/><stop offset=".462" style="stop-color:#ff672a"/><stop offset=".534" style="stop-color:#ff3647"/><stop offset=".705" style="stop-color:#e31587"/></linearGradient><path d="M77.1 26.9c-1.7-4.1-5.3-8.4-8-9.8 2 3.7 3.3 7.7 4.1 11.8v.1C68.6 18 60.9 13.5 54.7 3.9l-.9-1.5c-.2-.3-.3-.6-.4-.8-.3-.5-.5-1-.6-1.5 0-.1 0-.1-.1-.1h-.1C42.4 5.7 39 16.3 38.7 21.6c-4 .3-7.9 1.7-11 4.1-.3-.3-.7-.5-1-.8-.9-3.1-1-6.4-.1-9.5-3.7 1.7-7 4.2-9.6 7.2-1.6-1.9-1.5-8.4-1.4-9.7-.5.2-.9.4-1.3.7-1.4 1-2.7 2.1-3.9 3.2-1.4 1.3-2.6 2.8-3.7 4.3-2.8 3.7-4.6 7.7-5.6 11.9l-.1.3c-.1.3-.3 2.1-.4 2.4v.1c-.4 1.8-.6 3.6-.6 5.3v.2C0 62.7 18 80 40.1 80c19.5 0 36.1-13.6 39.4-32.2.1-.5.1-1 .2-1.5.8-6.6-.1-13.3-2.6-19.4zM30.9 57.2l.6.3-.6-.3zm42.2-28.3z" style="fill:url(#a)"/><radialGradient id="b" cx="-7905.715" cy="8590.171" r="80.8" gradientTransform="matrix(1.0333 0 0 -1.0005 8238.123 8603.77)" gradientUnits="userSpaceOnUse"><stop offset=".129" style="stop-color:#ffbd4f"/><stop offset=".186" style="stop-color:#ffac31"/><stop offset=".247" style="stop-color:#ff9d17"/><stop offset=".283" style="stop-color:#ff980e"/><stop offset=".403" style="stop-color:#ff563b"/><stop offset=".467" style="stop-color:#ff3750"/><stop offset=".71" style="stop-color:#f5156c"/><stop offset=".782" style="stop-color:#eb0878"/><stop offset=".86" style="stop-color:#e50080"/></radialGradient><path d="M77.1 26.9c-1.7-4.1-5.3-8.4-8-9.8 2 3.7 3.3 7.7 4.1 11.8 3.1 8.6 2.6 17.9-1.2 26.2-4.6 9.5-15.7 19.3-33.1 18.8C20 73.4 3.5 59.9.4 42.2c-.6-2.8 0-4.2.3-6.5-.4 1.8-.6 3.6-.6 5.4v.2C0 62.7 18 80 40.1 80c19.5 0 36.1-13.6 39.4-32.2.1-.5.1-1 .2-1.5.8-6.6-.1-13.3-2.6-19.4z" style="fill:url(#b)"/><radialGradient id="c" cx="-7935.715" cy="8557.171" r="80.8" gradientTransform="matrix(1.0333 0 0 -1.0005 8238.123 8603.77)" gradientUnits="userSpaceOnUse"><stop offset=".3" style="stop-color:#960e18"/><stop offset=".351" style="stop-color:#b11927;stop-opacity:.74"/><stop offset=".435" style="stop-color:#db293d;stop-opacity:.343"/><stop offset=".497" style="stop-color:#f5334b;stop-opacity:9.400000e-02"/><stop offset=".53" style="stop-color:#ff3750;stop-opacity:0"/></radialGradient><path d="M77.1 26.9c-1.7-4.1-5.3-8.4-8-9.8 2 3.7 3.3 7.7 4.1 11.8 3.1 8.6 2.6 17.9-1.2 26.2-4.6 9.5-15.7 19.3-33.1 18.8C20 73.4 3.5 59.9.4 42.2c-.6-2.8 0-4.2.3-6.5-.4 1.8-.6 3.6-.6 5.4v.2C0 62.7 18 80 40.1 80c19.5 0 36.1-13.6 39.4-32.2.1-.5.1-1 .2-1.5.8-6.6-.1-13.3-2.6-19.4z" style="fill:url(#c)"/><radialGradient id="d" cx="-7925.715" cy="8608.171" r="58.53" gradientTransform="matrix(1.0333 0 0 -1.0005 8238.123 8603.77)" gradientUnits="userSpaceOnUse"><stop offset=".132" style="stop-color:#fff44f"/><stop offset=".252" style="stop-color:#ffdc3e"/><stop offset=".506" style="stop-color:#ff9d12"/><stop offset=".526" style="stop-color:#ff980e"/></radialGradient><path d="M57.6 31.4c.1.1.2.1.2.2-1-1.7-2.3-3.3-3.7-4.7C41.7 14.8 50.9.8 52.4 0 42.4 5.7 39 16.3 38.7 21.6c.5 0 .9-.1 1.4-.1 7.3 0 14 3.8 17.5 9.9z" style="fill:url(#d)"/><radialGradient id="e" cx="-7944.715" cy="8536.171" r="38.47" gradientTransform="matrix(1.0333 0 0 -1.0005 8238.123 8603.77)" gradientUnits="userSpaceOnUse"><stop offset=".353" style="stop-color:#3a8ee6"/><stop offset=".472" style="stop-color:#5c79f0"/><stop offset=".669" style="stop-color:#9059ff"/><stop offset="1" style="stop-color:#c139e6"/></radialGradient><path d="M40.1 33.8c-.1 1-3.6 4.3-4.8 4.3-11.4 0-13.2 6.7-13.2 6.7.5 5.6 4.5 10.2 9.4 12.7.2.1.4.2.7.3.4.2.8.3 1.2.5 1.7.6 3.4.9 5.2 1 20 .9 23.8-23.1 9.4-30.1 3.4-.4 6.8.4 9.7 2.3-3.6-6.1-10.3-9.9-17.5-9.9-.5 0-.9 0-1.4.1-4 .3-7.9 1.7-11 4.1.6.5 1.3 1.2 2.8 2.6 2.5 2.4 9.5 5.1 9.5 5.4z" style="fill:url(#e)"/><radialGradient id="f" cx="-8029.628" cy="8551.123" r="20.4" gradientTransform="matrix(1.0044 -.2351 -.2842 -1.1386 10536.728 7883.495)" gradientUnits="userSpaceOnUse"><stop offset=".206" style="stop-color:#9059ff;stop-opacity:0"/><stop offset=".278" style="stop-color:#8c4ff3;stop-opacity:6.400000e-02"/><stop offset=".747" style="stop-color:#7716a8;stop-opacity:.45"/><stop offset=".975" style="stop-color:#6e008b;stop-opacity:.6"/></radialGradient><path d="M40.1 33.8c-.1 1-3.6 4.3-4.8 4.3-11.4 0-13.2 6.7-13.2 6.7.5 5.6 4.5 10.2 9.4 12.7.2.1.4.2.7.3.4.2.8.3 1.2.5 1.7.6 3.4.9 5.2 1 20 .9 23.8-23.1 9.4-30.1 3.4-.4 6.8.4 9.7 2.3-3.6-6.1-10.3-9.9-17.5-9.9-.5 0-.9 0-1.4.1-4 .3-7.9 1.7-11 4.1.6.5 1.3 1.2 2.8 2.6 2.5 2.4 9.5 5.1 9.5 5.4z" style="fill:url(#f)"/><radialGradient id="g" cx="-7936.715" cy="8593.171" r="27.68" gradientTransform="matrix(1.0333 0 0 -1.0005 8238.123 8603.77)" gradientUnits="userSpaceOnUse"><stop offset="0" style="stop-color:#ffe226"/><stop offset=".121" style="stop-color:#ffdb27"/><stop offset=".295" style="stop-color:#ffc82a"/><stop offset=".502" style="stop-color:#ffa930"/><stop offset=".732" style="stop-color:#ff7e37"/><stop offset=".792" style="stop-color:#ff7139"/></radialGradient><path d="M25.8 24.4c.3.2.6.4.8.5-.9-3.1-1-6.4-.1-9.5-3.7 1.7-7 4.2-9.6 7.2.2.1 6 0 8.9 1.8z" style="fill:url(#g)"/><radialGradient id="h" cx="-7914.715" cy="8611.171" r="118.1" gradientTransform="matrix(1.0333 0 0 -1.0005 8238.123 8603.77)" gradientUnits="userSpaceOnUse"><stop offset=".113" style="stop-color:#fff44f"/><stop offset=".456" style="stop-color:#ff980e"/><stop offset=".622" style="stop-color:#ff5634"/><stop offset=".716" style="stop-color:#ff3647"/><stop offset=".904" style="stop-color:#e31587"/></radialGradient><path d="M.4 42.2C3.5 59.9 20 73.4 38.8 73.9c17.4.5 28.5-9.3 33.1-18.8 3.9-8.2 4.3-17.6 1.2-26.2v.1c1.4 9-3.3 17.7-10.7 23.6v.1C48 64 34.3 59.5 31.5 57.7l-.6-.3c-8.3-4-11.8-11.4-11.1-17.8-4.1.1-7.8-2.2-9.5-5.8 4.5-2.7 10-2.9 14.7-.6 4.7 2.1 10.1 2.3 15 .6 0-.3-7-3-9.7-5.6-1.5-1.4-2.1-2.1-2.8-2.6-.3-.3-.7-.5-1-.8-.2-.2-.5-.3-.8-.5-2.9-1.8-8.7-1.7-8.9-1.7-1.6-1.9-1.5-8.4-1.4-9.7-.5.2-.9.4-1.3.7-1.4 1-2.7 2.1-3.9 3.2-1.4 1.3-2.6 2.8-3.8 4.3-2.5 3.7-4.3 7.7-5.3 11.9 0 .1-1.4 6.1-.7 9.2z" style="fill:url(#h)"/><radialGradient id="i" cx="-7912.327" cy="9479.543" r="86.5" gradientTransform="matrix(.1085 .9955 .6747 -.06904 -5487.977 8525.96)" gradientUnits="userSpaceOnUse"><stop offset="0" style="stop-color:#fff44f"/><stop offset=".06" style="stop-color:#ffe847"/><stop offset=".168" style="stop-color:#ffc830"/><stop offset=".304" style="stop-color:#ff980e"/><stop offset=".356" style="stop-color:#ff8b16"/><stop offset=".455" style="stop-color:#ff672a"/><stop offset=".57" style="stop-color:#ff3647"/><stop offset=".737" style="stop-color:#e31587"/></radialGradient><path d="M54.2 26.9c1.5 1.4 2.7 3 3.7 4.7.2.2.4.3.6.5 9.1 8.1 4.3 19.6 4 20.4 7.4-5.9 12.1-14.6 10.7-23.6-4.6-11-12.3-15.4-18.6-25l-.9-1.5c-.2-.3-.3-.6-.4-.8-.3-.5-.5-1-.6-1.5 0-.1 0-.1-.1-.1h-.1c-1.6.7-10.8 14.8 1.7 26.9z" style="fill:url(#i)"/><radialGradient id="j" cx="-7936.715" cy="8583.171" r="73.72" gradientTransform="matrix(1.0333 0 0 -1.0005 8238.123 8603.77)" gradientUnits="userSpaceOnUse"><stop offset=".137" style="stop-color:#fff44f"/><stop offset=".48" style="stop-color:#ff980e"/><stop offset=".592" style="stop-color:#ff5634"/><stop offset=".655" style="stop-color:#ff3647"/><stop offset=".904" style="stop-color:#e31587"/></radialGradient><path d="M58.5 32.1c-.2-.2-.4-.3-.6-.5-.1-.1-.2-.1-.2-.2-2.8-1.9-6.3-2.7-9.7-2.3 14.4 7 10.5 31-9.4 30.1-1.8-.1-3.5-.4-5.2-1-.4-.1-.8-.3-1.2-.5-.2-.1-.5-.2-.7-.3 2.8 1.8 16.5 6.3 30.9-5v-.1c.4-.7 5.2-12.1-3.9-20.2z" style="fill:url(#j)"/><radialGradient id="k" cx="-7917.715" cy="8579.171" r="80.69" gradientTransform="matrix(1.0333 0 0 -1.0005 8238.123 8603.77)" gradientUnits="userSpaceOnUse"><stop offset=".094" style="stop-color:#fff44f"/><stop offset=".231" style="stop-color:#ffe141"/><stop offset=".509" style="stop-color:#ffaf1e"/><stop offset=".626" style="stop-color:#ff980e"/></radialGradient><path d="M22.1 44.8s1.8-6.7 13.2-6.7c1.2 0 4.8-3.3 4.8-4.3-4.9 1.7-10.3 1.5-15-.6-4.7-2.3-10.3-2.1-14.7.6 1.7 3.6 5.4 5.8 9.5 5.8-.7 6.3 2.7 13.7 11.1 17.6l.6.3c-5-2.5-9-7.1-9.5-12.7z" style="fill:url(#k)"/><linearGradient id="l" gradientUnits="userSpaceOnUse" x1="71.579" y1="63.425" x2="16.103" y2="7.939" gradientTransform="matrix(1 0 0 -1 -1.3 75.206)"><stop offset=".167" style="stop-color:#fff44f;stop-opacity:.8"/><stop offset=".266" style="stop-color:#fff44f;stop-opacity:.634"/><stop offset=".489" style="stop-color:#fff44f;stop-opacity:.217"/><stop offset=".6" style="stop-color:#fff44f;stop-opacity:0"/></linearGradient><path d="M77.1 26.9c-1.7-4.1-5.3-8.4-8-9.8 2 3.7 3.3 7.7 4.1 11.8v.1C68.6 18 60.9 13.5 54.7 3.9l-.9-1.5c-.2-.3-.3-.6-.4-.8-.3-.5-.5-1-.6-1.5 0-.1 0-.1-.1-.1h-.1C42.4 5.7 39 16.3 38.7 21.6c.5 0 .9-.1 1.4-.1 7.3 0 14 3.8 17.5 9.9-2.8-1.9-6.3-2.7-9.7-2.3 14.4 7 10.5 31-9.4 30.1-1.8-.1-3.5-.4-5.2-1-.4-.1-.8-.3-1.2-.5-.2-.1-.5-.2-.7-.3l-.6-.3.6.3c-4.9-2.4-8.9-7.1-9.4-12.7 0 0 1.8-6.7 13.2-6.7 1.2 0 4.8-3.3 4.8-4.3 0-.3-7-3-9.7-5.6-1.5-1.4-2.1-2.1-2.8-2.6-.3-.3-.7-.5-1-.8-.9-3.1-1-6.4-.1-9.5-3.7 1.7-7 4.2-9.6 7.2-1.6-1.9-1.5-8.4-1.4-9.7-.5.2-.9.4-1.3.7-1.4 1-2.7 2.1-3.9 3.2-1.4 1.3-2.6 2.8-3.7 4.3-2.6 3.9-4.4 7.9-5.4 12.1l-.1.3c-.1.3-.4 2.1-.5 2.4-.3 1.8-.5 3.6-.6 5.4v.2C0 62.7 18 80 40.1 80c19.5 0 36.1-13.6 39.4-32.2.1-.5.1-1 .2-1.5.8-6.6-.1-13.3-2.6-19.4zm-4 2z" style="fill:url(#l)"/></svg>