<svg xmlns="http://www.w3.org/2000/svg" viewBox="0 0 80.3 80.1" style="enable-background:new 0 0 80.3 80.1" xml:space="preserve"><g transform="translate(-318.886 -180.595)"><path d="M396.3 223.7c0 19.7-16.7 35.7-37.3 35.7-20.6 0-37.3-16-37.3-35.7S338.4 188 359 188c20.6 0 37.3 16 37.3 35.7z" style="opacity:.53;enable-background:new"/><linearGradient id="a" gradientUnits="userSpaceOnUse" x1="680.454" y1="201.376" x2="680.454" y2="278.64" gradientTransform="matrix(.9965 0 0 -.9965 -319.054 459.712)"><stop offset="0" style="stop-color:#bdbdbd"/><stop offset="1" style="stop-color:#fff"/></linearGradient><path d="M397.7 220.5c0 21.3-17.3 38.5-38.7 38.5h0c-21.4 0-38.7-17.2-38.7-38.5S337.7 182 359 182h0c21.4 0 38.7 17.3 38.7 38.5h0z" style="fill:url(#a);stroke:#cdcdcd;stroke-width:.2637;stroke-linecap:round;stroke-linejoin:round;stroke-miterlimit:11.3386"/><radialGradient id="b" cx="630.395" cy="272.535" r="79.413" gradientTransform="matrix(.4871 0 0 -.4848 52.138 347.486)" gradientUnits="userSpaceOnUse"><stop offset="0" style="stop-color:#06c2e7"/><stop offset=".25" style="stop-color:#0db8ec"/><stop offset=".5" style="stop-color:#12aef1"/><stop offset=".75" style="stop-color:#1f86f9"/><stop offset="1" style="stop-color:#107ddd"/></radialGradient><path d="M394.7 220.5c0 19.6-16 35.5-35.6 35.5-19.7 0-35.6-15.9-35.6-35.5s16-35.5 35.6-35.5c19.6.1 35.6 15.9 35.6 35.5z" style="fill:url(#b)"/><path d="M359 186.9c-.3 0-.5.2-.5.5v6c0 .3.2.5.5.5s.5-.2.5-.5v-6c0-.3-.2-.5-.5-.5zm-3.4.2h-.1c-.3 0-.5.3-.5.6l.3 2.5c0 .3.3.5.6.5s.5-.3.5-.6l-.3-2.5c0-.3-.2-.4-.5-.5zm6.8 0c-.2 0-.4.2-.5.5l-.3 2.5c0 .3.2.5.5.6.3 0 .5-.2.6-.5l.3-2.5c0-.3-.2-.5-.5-.6h-.1zm-10.3.5h-.1c-.3.1-.5.3-.4.6l1.2 5.8c.1.3.3.5.6.4s.5-.3.4-.6l-1.2-5.8c0-.2-.2-.4-.5-.4zm13.8 0c-.2 0-.5.2-.5.4l-1.2 5.8c-.1.3.1.6.4.6.3.1.6-.1.6-.4l1.2-5.8c.1-.3-.1-.6-.4-.6h-.1zm-17.1 1h-.2c-.3.1-.4.4-.3.7l.8 2.4c.1.3.4.4.7.3.3-.1.4-.4.3-.7l-.8-2.4c-.1-.2-.3-.3-.5-.3zm20.4 0c-.2 0-.4.2-.4.4l-.8 2.4c-.1.3.1.6.3.7.3.1.6-.1.7-.3l.8-2.4c.1-.3-.1-.6-.3-.7-.1-.1-.2-.1-.3-.1zm-23.7 1.2h-.2c-.3.1-.4.4-.3.7l2.4 5.5c.1.3.4.4.7.3.3-.1.4-.4.3-.7l-2.4-5.5c-.1-.2-.3-.3-.5-.3zm27.1 0c-.2 0-.4.1-.5.3l-2.4 5.4c-.1.3 0 .6.3.7.3.1.6 0 .7-.3l2.4-5.4c.1-.3 0-.6-.3-.7h-.2zm-30.2 1.6c-.1 0-.2 0-.3.1-.2.1-.3.5-.2.7l1.3 2.2c.1.2.5.3.7.2s.3-.5.2-.7l-1.3-2.2c0-.2-.2-.3-.4-.3zm33.2 0c-.2 0-.3.1-.4.3l-1.3 2.2c-.1.2-.1.6.2.7s.6.1.7-.2l1.3-2.2c.1-.2.1-.6-.2-.7-.1-.1-.2-.1-.3-.1zm-36.1 1.8c-.1 0-.2 0-.3.1-.2.2-.3.5-.1.7l3.5 4.8c.2.2.5.3.7.1.2-.2.3-.5.1-.7l-3.5-4.8c-.1-.1-.3-.2-.4-.2zm39.1.1c-.2 0-.3.1-.4.2l-3.5 4.8c-.2.2-.1.6.1.7.2.2.6.1.7-.1l3.5-4.8c.2-.2.1-.6-.1-.7-.1-.1-.2-.1-.3-.1zm-41.8 2.1c-.1 0-.3 0-.4.1-.2.2-.2.5 0 .7l1.7 1.9c.2.2.5.2.7 0 .2-.2.2-.5 0-.7l-1.7-1.9s-.2-.1-.3-.1zm44.4 0c-.1 0-.3.1-.4.2l-1.7 1.9c-.2.2-.2.5 0 .7.2.2.5.2.7 0l1.7-1.9c.2-.2.2-.5 0-.7 0-.1-.1-.2-.3-.2zm-46.9 2.5c-.1 0-.3.1-.4.2-.2.2-.2.5 0 .7l4.5 4c.2.2.5.2.7 0 .2-.2.2-.5 0-.7l-4.5-4c-.1-.2-.2-.2-.3-.2zm49.5 0c-.1 0-.3 0-.4.1l-4.5 4c-.2.2-.2.5 0 .7.2.2.5.2.7 0l4.5-4c.2-.2.2-.5 0-.7 0 0-.2-.1-.3-.1zm-51.7 2.7c-.2 0-.3.1-.4.2-.2.2-.1.6.1.7l2 1.5c.2.2.6.1.7-.1.2-.2.1-.6-.1-.7l-2-1.5c-.1-.1-.2-.1-.3-.1zm53.8 0c-.1 0-.2 0-.3.1l-2 1.5c-.2.2-.3.5-.1.7.2.2.5.3.7.1l2-1.5c.2-.2.3-.5.1-.7-.1-.1-.2-.2-.4-.2zm-55.7 2.9c-.2 0-.3.1-.4.3-.1.2-.1.6.2.7l5.2 3c.2.1.6.1.7-.2s.1-.6-.2-.7l-5.2-3c-.1-.1-.2-.1-.3-.1zm57.7 0c-.1 0-.2 0-.3.1l-5.2 3c-.2.1-.3.5-.2.7.1.2.5.3.7.2l5.2-3c.2-.1.3-.5.2-.7-.1-.2-.3-.3-.4-.3zm-59.2 3.1c-.2 0-.4.1-.5.3-.1.3 0 .6.3.7l2.3 1c.3.1.6 0 .7-.3.1-.3 0-.6-.3-.7l-2.3-1h-.2zm60.7 0h-.2l-2.3 1c-.3.1-.4.4-.3.7.1.3.4.4.7.3l2.3-1c.3-.1.4-.4.3-.7-.1-.2-.3-.3-.5-.3zm-62.1 3.2c-.2 0-.4.2-.4.4-.1.3.1.6.3.7l5.7 1.8c.3.1.6-.1.7-.3.1-.3-.1-.6-.3-.7l-5.7-1.8c-.1-.1-.2-.1-.3-.1zm63.4 0h-.2l-5.7 1.8c-.3.1-.4.4-.3.7s.4.4.7.3l5.7-1.8c.3-.1.4-.4.3-.7-.1-.2-.3-.3-.5-.3zm-64.2 3.3c-.2 0-.5.2-.5.4-.1.3.1.6.4.6l2.5.5c.3.1.6-.1.6-.4.1-.3-.1-.6-.4-.6l-2.5-.5c0 .1-.1.1-.1 0zm65 .1h-.1l-2.5.5c-.3.1-.5.3-.4.6.1.3.3.5.6.4l2.5-.5c.3-.1.5-.3.4-.6 0-.3-.2-.4-.5-.4zm-65.6 3.3c-.2 0-.4.2-.5.5 0 .3.2.5.5.6l6 .6c.3 0 .5-.2.6-.5 0-.3-.2-.5-.5-.6l-6-.6h-.1zm66.3.1h-.1l-6 .6c-.3 0-.5.3-.5.6s.3.5.6.5l6-.6c.3 0 .5-.3.5-.6-.1-.3-.3-.5-.5-.5zm-66.4 3.4c-.3 0-.5.2-.5.5s.2.5.5.5h2.5c.3 0 .5-.2.5-.5s-.2-.5-.5-.5h-2.5zm63.9 0c-.3 0-.5.2-.5.5s.2.5.5.5h2.5c.3 0 .5-.2.5-.5s-.2-.5-.5-.5h-2.5zm-57.8 2.8h-.1l-6 .6c-.3 0-.5.3-.5.6s.3.5.6.5l6-.6c.3 0 .5-.3.5-.6 0-.2-.2-.4-.5-.5zm54.2.1c-.2 0-.4.2-.5.5 0 .3.2.5.5.6l6 .6c.3 0 .5-.2.6-.5 0-.3-.2-.5-.5-.6l-6-.6h-.1zm-57.1 3.5h-.1l-2.5.5c-.3.1-.5.3-.4.6.1.3.3.5.6.4l2.5-.5c.3-.1.5-.3.4-.6-.1-.3-.3-.4-.5-.4zm60.1 0c-.2 0-.5.2-.5.4-.1.3.1.6.4.6l2.5.5c.3.1.6-.1.6-.4.1-.3-.1-.6-.4-.6l-2.5-.5h-.1zm-56 2h-.2l-5.7 1.8c-.3.1-.4.4-.3.7.1.3.4.4.7.3l5.7-1.8c.3-.1.4-.4.3-.7-.1-.1-.3-.3-.5-.3zm51.8 0c-.2 0-.4.2-.4.4-.1.3.1.6.3.7l5.7 1.8c.3.1.6-.1.7-.3.1-.3-.1-.6-.3-.7l-5.7-1.8c-.2-.1-.2-.1-.3-.1zm-54 4.1h-.2l-2.3 1c-.3.1-.4.4-.3.7.1.3.4.4.7.3l2.3-1c.3-.1.4-.4.3-.7-.1-.2-.2-.3-.5-.3zm56.2 0c-.2 0-.4.1-.5.3-.1.3 0 .6.3.7l2.3 1c.3.1.6 0 .7-.3.1-.3 0-.6-.3-.7l-2.3-1h-.2zm-51.7 1.1c-.1 0-.2 0-.3.1l-5.2 3c-.2.1-.3.5-.2.7s.5.3.7.2l5.2-3c.2-.1.3-.5.2-.7 0-.2-.2-.3-.4-.3zm47.2 0c-.2 0-.3.1-.4.3-.1.2-.1.6.2.7l5.2 3c.2.1.6.1.7-.2.1-.2.1-.6-.2-.7l-5.2-3c-.1-.1-.2-.1-.3-.1zm-48.5 4.4c-.1 0-.2 0-.3.1l-2 1.5c-.2.2-.3.5-.1.7.2.2.5.3.7.1l2-1.5c.2-.2.3-.5.1-.7 0-.2-.2-.2-.4-.2zm49.8 0c-.2 0-.3.1-.4.2-.2.2-.1.6.1.7l2 1.5c.2.2.6.1.7-.1.2-.2.1-.6-.1-.7l-2-1.5c-.1-.1-.2-.1-.3-.1zm-45.1.2c-.1 0-.3 0-.4.1l-4.5 4c-.2.2-.2.5 0 .7.2.2.5.2.7 0l4.5-4c.2-.2.2-.5 0-.7-.1-.1-.2-.1-.3-.1zm40.5 0c-.1 0-.3.1-.4.2-.2.2-.2.5 0 .7l4.5 4c.2.2.5.2.7 0 .2-.2.2-.5 0-.7l-4.5-4c-.1-.2-.2-.2-.3-.2zM343 242c-.2 0-.3.1-.4.2L339 247c-.2.2-.1.6.1.7.2.2.6.1.7-.1l3.5-4.8c.2-.2.1-.6-.1-.7 0-.1-.1-.1-.2-.1zm32 0c-.1 0-.2 0-.3.1-.2.2-.3.5-.1.7l3.5 4.8c.2.2.5.3.7.1.2-.2.3-.5.1-.7l-3.5-4.8c-.1-.1-.2-.2-.4-.2zm-36.6.7c-.1 0-.3.1-.4.2l-1.7 1.9c-.2.2-.2.5 0 .7.2.2.5.2.7 0l1.7-1.9c.2-.2.2-.5 0-.7 0-.1-.1-.2-.3-.2zm41.2 0c-.1 0-.3 0-.4.1-.2.2-.2.5 0 .7l1.7 1.9c.2.2.5.2.7 0 .2-.2.2-.5 0-.7l-1.7-1.9s-.2 0-.3-.1zm-31.7 2.1c-.2 0-.4.1-.5.3l-2.4 5.4c-.1.3 0 .6.3.7.3.1.6 0 .7-.3l2.4-5.4c.1-.3 0-.6-.3-.7h-.2zm22.2 0h-.2c-.3.1-.4.4-.3.7l2.4 5.5c.1.3.4.4.7.3.3-.1.4-.4.3-.7l-2.4-5.5c-.1-.2-.3-.3-.5-.3zm-26.5 1.7c-.2 0-.3.1-.4.3l-1.3 2.2c-.1.2-.1.6.2.7.2.1.6.1.7-.2l1.3-2.2c.1-.2.1-.6-.2-.7-.1-.1-.2-.1-.3-.1zm30.8 0c-.1 0-.2 0-.3.1-.2.1-.3.5-.2.7l1.3 2.2c.1.2.5.3.7.2.2-.1.3-.5.2-.7l-1.3-2.2c-.1-.2-.2-.3-.4-.3zm-21 .1c-.2 0-.5.2-.5.4l-1.2 5.8c-.1.3.1.6.4.6.3.1.6-.1.6-.4l1.2-5.8c.1-.3-.1-.6-.4-.6h-.1zm11.3 0h-.1c-.3.1-.5.3-.4.6l1.2 5.8c.1.3.3.5.6.4s.5-.3.4-.6l-1.2-5.8c-.1-.3-.3-.4-.5-.4zm-5.7.6c-.3 0-.5.2-.5.5v6c0 .3.2.5.5.5s.5-.2.5-.5v-6c0-.3-.2-.5-.5-.5zm-9.5 1.9c-.2 0-.4.2-.4.4l-.8 2.4c-.1.3.1.6.3.7.3.1.6-.1.7-.3l.8-2.4c.1-.3-.1-.6-.3-.7-.2-.1-.3-.1-.3-.1zm19.1 0h-.2c-.3.1-.4.4-.3.7l.8 2.4c.1.3.4.4.7.3.3-.1.4-.4.3-.7l-.8-2.4c-.2-.1-.3-.3-.5-.3zm-12.8 1.3c-.2 0-.4.2-.5.5l-.3 2.5c0 .3.2.5.5.6.3 0 .5-.2.6-.5l.3-2.5c0-.3-.2-.5-.5-.6h-.1zm6.5 0h-.1c-.3 0-.5.3-.5.6l.3 2.5c0 .3.3.5.6.5s.5-.3.5-.6l-.3-2.5c-.1-.3-.3-.4-.5-.5z" style="fill:#f4f2f3"/><path d="M383.4 199.9 355 216.3l-18 28.2 26.3-19.4 20.1-25.2z" style="opacity:.409;enable-background:new"/><path d="m363.1 224.8-8.2-8.5 28.9-19.4-20.7 27.9z" style="fill:#ff5150"/><path d="m363.1 224.8-8.2-8.5-20.8 27.9 29-19.4z" style="fill:#f1f1f1"/><path d="m334.2 244.1 28.9-19.4 20.8-27.9-49.7 47.3z" style="opacity:.243;enable-background:new"/></g></svg>